Coordinates
version=1
nRows=11
nColumns=42
inDegrees=yes

Units are S.I. units (second, meters, Newtons, ...)
If the header above contains a line with 'inDegrees', this indicates whether rotational values are in degrees (yes) or radians (no).

endheader
time	pelvis_tilt	pelvis_list	pelvis_rotation	pelvis_tx	pelvis_ty	pelvis_tz	hip_flexion_r	hip_adduction_r	hip_rotation_r	knee_angle_r	knee_adduction_r	knee_angle_r_beta	ankle_angle_r	subtalar_angle_r	mtp_angle_r	hip_flexion_l	hip_adduction_l	hip_rotation_l	knee_angle_l	knee_adduction_l	knee_angle_l_beta	ankle_angle_l	subtalar_angle_l	mtp_angle_l	lumbar_extension	lumbar_bending	lumbar_rotation	arm_flex_r	arm_add_r	arm_rot_r	elbow_flex_r	pro_sup_r	wrist_flex_r	wrist_dev_r	arm_flex_l	arm_add_l	arm_rot_l	elbow_flex_l	pro_sup_l	wrist_flex_l	wrist_dev_l
      1.64000000	     19.50535167	      0.75196566	      3.99987972	      0.97571932	      0.96647408	     -0.05662170	      8.03537712	     -0.72192881	    -19.27757970	     37.89195560	     -6.15588401	      0.66133939	      8.26955205	      5.73434204	     -7.50474455	    -28.70866660	     -2.27756894	     -1.15145971	     48.18912988	     -2.99921582	      0.84105898	     -6.81048952	      4.32620591	     -7.50474455	    -39.94252279	      4.21451967	      0.84679678	     -3.96989707	    -15.39389120	    -13.08900368	     61.38575369	     90.00000001	      0.00000000	      0.00000000	      7.82572073	    -18.36289859	      5.81262721	     69.26635328	     90.00000001	      0.00000000	      0.00000000
      1.65000000	     19.80600710	      0.53206756	      3.87894850	      0.99010195	      0.96881797	     -0.05494050	      6.66993804	     -0.35221920	    -20.38046840	     37.63959126	     -6.66206779	      0.65693480	      9.57319711	      7.52022268	     -7.50448075	    -27.57319315	     -2.32517994	      0.46925055	     51.29517902	     -2.15584252	      0.89526976	     -7.52636225	      0.91890926	     -7.50448075	    -40.36790344	      4.34395498	      1.28256383	     -3.65141050	    -15.53732712	    -12.93410893	     61.37826692	     90.00000001	      0.00000000	      0.00000000	      7.25509734	    -17.91828444	      5.40116070	     68.79170018	     90.00000001	      0.00000000	      0.00000000
      1.66000000	     19.89116030	      0.34239699	      3.77772086	      1.00410807	      0.97110355	     -0.05327612	      5.49331463	     -0.03233503	    -21.49422767	     37.23830666	     -7.15030778	      0.64993106	     10.71863585	      9.40870224	     -7.50422064	    -26.01666736	     -2.33127287	      1.70687248	     54.34917854	     -1.51492837	      0.94857211	     -7.85747226	     -1.82557891	     -7.50422064	    -40.60067695	      4.42142276	      1.66813235	     -3.32099795	    -15.65706781	    -12.76695762	     61.34622123	     90.00000001	      0.00000000	      0.00000000	      6.73114569	    -17.48875493	      5.01684777	     68.20717297	     90.00000001	      0.00000000	      0.00000000
      1.67000000	     19.87069992	      0.06938256	      3.64143406	      1.01776320	      0.97343125	     -0.05146364	      4.32152097	      0.44470393	    -22.01113742	     36.57994941	     -7.29598178	      0.63844056	     11.47083973	     10.04817380	     -7.50412805	    -24.19876451	     -2.49349851	      2.00844149	     57.19925002	     -1.37693332	      0.99831524	     -7.47226755	     -2.82478745	     -7.50412805	    -40.77212415	      4.51619228	      2.15007432	     -2.95534866	    -15.75846060	    -12.67118313	     61.44895262	     90.00000001	      0.00000000	      0.00000000	      6.17450263	    -17.22771553	      4.90235337	     67.74660147	     90.00000001	      0.00000000	      0.00000000
      1.68000000	     19.88468312	     -0.03182139	      3.52899536	      1.03112058	      0.97601703	     -0.04976354	      3.03914733	      0.67660219	    -22.35505697	     35.84795528	     -7.20871585	      0.62566485	     12.00313784	     10.64546497	     -7.50406605	    -22.37800719	     -2.43802635	      2.24863541	     59.63816687	     -1.39680282	      1.04088237	     -7.02841122	     -3.55397847	     -7.50406605	    -41.00395013	      4.43957426	      2.52501162	     -2.57029278	    -15.82351303	    -12.55756980	     61.56921953	     90.00000001	      0.00000000	      0.00000000	      5.77908624	    -17.00214917	      4.77636779	     67.27664725	     90.00000001	      0.00000000	      0.00000000
      1.69000000	     19.65393319	     -0.07245976	      3.31857114	      1.04436969	      0.97839113	     -0.04803797	      2.15277432	      0.77823024	    -23.36518399	     35.19915445	     -7.61509878	      0.61434114	     12.96315689	     13.21600899	     -7.50388803	    -20.28796169	     -2.26852127	      2.88618911	     61.75569992	     -0.87398115	      1.07784030	     -6.34888500	     -5.72930769	     -7.50388803	    -40.94066678	      4.24277473	      2.90897050	     -2.23103084	    -16.00296851	    -12.13079278	     61.48533641	     90.00000001	      0.00000000	      0.00000000	      5.52961832	    -16.35493100	      4.03493464	     65.90020799	     90.00000001	      0.00000000	      0.00000000
      1.70000000	     19.67816114	     -0.05583558	      3.16368224	      1.05727184	      0.98123722	     -0.04632986	      0.80173504	      0.94386322	    -23.39136492	     34.27726943	     -7.45920744	      0.59825121	     13.27502085	     13.49466139	     -7.50384009	    -18.44607149	     -2.05973211	      2.82139378	     63.31212860	     -1.06891227	      1.10500510	     -5.84417600	     -5.89319385	     -7.50384009	    -41.23437663	      4.00096723	      3.15085790	     -1.75164137	    -16.04916877	    -12.05317827	     61.72911521	     90.00000001	      0.00000000	      0.00000000	      5.09893049	    -16.32412452	      3.99640653	     65.56875162	     90.00000001	      0.00000000	      0.00000000
      1.71000000	     19.47254239	     -0.19094593	      2.93132458	      1.07016259	      0.98370046	     -0.04448069	     -0.22435718	      1.27220888	    -23.66032813	     33.35293592	     -7.54363657	      0.58211855	     13.87450264	     14.97574513	     -7.50368849	    -16.33629435	     -2.06055555	      2.44706565	     64.56673127	     -1.24578323	      1.12690205	     -4.43886597	     -6.20690239	     -7.50368849	    -41.22798868	      3.85264556	      3.54316135	     -1.41379650	    -16.20615030	    -11.58009954	     61.89624346	     90.00000001	      0.00000000	      0.00000000	      4.78154321	    -15.94323169	      3.50016894	     64.35665041	     90.00000001	      0.00000000	      0.00000000
      1.72000000	     19.35936859	     -0.12794276	      2.74209789	      1.08281118	      0.98636044	     -0.04273194	     -1.42354559	      1.42791485	    -23.59919398	     32.32706154	     -7.43755255	      0.56421366	     14.10852234	     15.24427450	     -7.50363962	    -14.35690997	     -1.80507484	      2.19541775	     65.28670709	     -1.46172845	      1.13946800	     -3.67724694	     -6.23968616	     -7.50363962	    -41.35510927	      3.51695709	      3.73571349	     -0.94394307	    -16.21544983	    -11.44853997	     62.19126095	     90.00000001	      0.00000000	      0.00000000	      4.34778978	    -15.95455096	      3.42780434	     63.91804600	     90.00000001	      0.00000000	      0.00000000
      1.73000000	     19.21386670	     -0.19998470	      2.45389161	      1.09548383	      0.98874438	     -0.04092445	     -2.52086653	      1.69843355	    -23.87993546	     31.31871634	     -7.56631116	      0.54661472	     14.53713916	     16.72402026	     -7.50347106	    -12.37728891	     -1.73064539	      1.40871647	     65.65960923	     -1.92703346	      1.14597637	     -1.92012123	     -5.43247992	     -7.50347106	    -41.40122349	      3.28047815	      4.09895922	     -0.62051385	    -16.50250946	    -10.77648867	     62.56038765	     90.00000001	      0.00000000	      0.00000000	      4.17952719	    -15.59319739	      2.84957934	     62.48781582	     90.00000001	      0.00000000	      0.00000000
      1.74000000	     19.02123221	     -0.13884876	      2.22687843	      1.10794350	      0.99105063	     -0.03917798	     -3.61202910	      1.88031328	    -23.87301543	     30.23252327	     -7.56361911	      0.52765707	     14.72082135	     17.01886651	     -7.50341844	    -10.37853346	     -1.47229113	      1.06305267	     65.61510633	     -2.10873385	      1.14519964	     -1.01984680	     -5.42979796	     -7.50341844	    -41.44308501	      2.91606402	      4.23991470	     -0.18850148	    -16.47099563	    -10.60758413	     62.90677822	     90.00000001	      0.00000000	      0.00000000	      3.70496123	    -15.67681075	      2.76603373	     62.02739140	     90.00000001	      0.00000000	      0.00000000
